<?xml version="1.0" encoding="UTF-8"?>
<svg id="Layer_1" xmlns="http://www.w3.org/2000/svg" version="1.1" viewBox="0 0 288 189.7">
  <!-- Generator: Adobe Illustrator 30.2.1, SVG Export Plug-In . SVG Version: 2.1.1 Build 1)  -->
  <defs>
    <style>
      .st0 {
        fill: #e8e9e8;
      }
    </style>
  </defs>
  <path class="st0" d="M287.8,114.4c-1.9-18-16.3-33.1-33.5-37.7,7.5-2.9,12.5-8.5,12.5-14.9,0-9.4-10.8-17-24.2-17s-7.4.6-10.6,1.7c-3.5,1.1-6.8,2.7-10,4.6-5,3-9.2,7.7-10.4,13.4-1.7,7.9,2.9,16,9,21.2,6.1,5.3,13.6,8.6,20.4,13,6.8,4.3,13.3,10.2,15.2,18.1,2.5,10.4-3.3,21.3-11.2,28.5-26.1,23.8-84.1,26.1-122.5,19-17.5-3.2-42-12.3-52.9-26.5-23.8-27,3.4-63.5,33.3-71.2,3.2-.8,6.4-1.3,9.6-1.4,12.3-.5,21,8.9,27.3,17.7,8.9,12.6,15,20,23.1,21.4,14.2,2.4,25.2-.4,26.3-8.4,1.2-8.8-3.2-17.3-7.9-23.5-6.4-8.5-12.1-10.3-12.1-10.3,2.3-5.1,2-11.5-1.1-16.3-1.7-2.4-3.6-4.6-6.5-5.7-2.1-.8-3.8-.6-4.5.7-.6,1.1-.4,2.4-.3,3.5.6,4.3-1.3,9-4.8,10.3-5,1.9-13.6.8-18-3.7-4.2-4.2-4.7-7.5-6-14.2-2.1-11.4-17.3,1.7-14.8,14.2-14-.1-25.5,1.9-33.6,3.8-7.7,1.8-21.8,5.3-37.4,15-10,6.2-17.3,12.9-22,17.8-4.4,4.5-8.5,9.6-12,15.3C-6.9,127.7.1,151.2,18.1,165.2c19.5,15,46.7,18.6,70.3,21.3,30.8,3.5,64.3,4.6,96.1.9,26.4-3.1,52.6-10.1,74.8-24.6,15.5-10.1,30.6-28.6,28.5-48.3ZM152.5,68.4c2.7,2.1,6,6.4,7.5,9.5,2.5,5.1.2,5.4-2.6,3.2-3-2.2-7.5-7.4-8.8-11.7h0c-1-4.1,2.5-2.3,3.9-1.1ZM171.6,78.6c-2.2-1.9-4.8-5.9-4.8-8.5h0c.3-2.4,3.1-.5,4.1.6,1.9,1.8,3.7,5,4.2,7,.8,3.3-1.6,2.8-3.6.9Z"/>
</svg>