<?xml version="1.0" encoding="UTF-8"?>
<svg id="Layer_1" xmlns="http://www.w3.org/2000/svg" xmlns:xlink="http://www.w3.org/1999/xlink" version="1.1" viewBox="0 0 288 189.7">
  <!-- Generator: Adobe Illustrator 30.2.1, SVG Export Plug-In . SVG Version: 2.1.1 Build 1)  -->
  <defs>
    <style>
      .st0 {
        fill: none;
      }

      .st1 {
        fill: #e6a6b3;
      }

      .st2 {
        fill: #e8e9e8;
      }

      .st3 {
        fill: #57caf1;
      }

      .st4 {
        clip-path: url(#clippath);
      }
    </style>
    <clipPath id="clippath">
      <rect class="st0" width="288" height="189.7"/>
    </clipPath>
  </defs>
  <g class="st4">
    <path class="st2" d="M148.6,69.4c1.4,4.3,5.9,9.5,8.8,11.7,2.8,2.2,5.1,1.9,2.6-3.2-1.5-3.1-4.9-7.5-7.5-9.5-1.4-1.2-4.9-3-3.9.9h0Z"/>
    <path class="st2" d="M166.9,70.1c0,2.6,2.6,6.5,4.7,8.5,2,1.9,4.3,2.4,3.5-.9-.5-2-2.3-5.2-4.2-7-1-1-3.8-2.9-4.1-.6h0Z"/>
    <path class="st2" d="M113.5,55.1c3.6.3,6,.9,6,.9-.3-.4-.7-.9-.9-1.3-.6-1.1-1-2.3-1.2-3.5-.1-.7-.2-1.4-.3-2.1,0-.4,0-.8,0-1.2.1-4.7,2-8.8,5.4-12,2.6-2.3,3.7,0,4,2.6.3,5.6,1.8,9.8,5.4,13.7,5.2,5.6,14.7,7.9,21.7,3.8,4.4-2.6,5.2-8.3,4.7-12.6-.3-2.8,2.9-2.5,5.1-.6,4.9,4.4,5.6,12.5,2.8,18.3,0,.2-.8,1.3-.8,1.3,0,0,8.6,3.4,14.7,12.9,4.2,6.6,12.6,22.6-5.6,24.6-21.3,2.4-26-19.7-39.3-28.9-7.5-6-15.2-8.3-20.4-9.8-12.2-3.7-23.3-3.6-31-2.8,7.9-2.1,19-4.2,29.6-3.3M287.8,114.4c-1.9-18-16.3-33.1-33.5-37.7,7.5-2.9,12.5-8.5,12.5-14.9,0-9.4-10.8-17-24.2-17s-7.4.6-10.6,1.7c-3.5,1.1-6.8,2.7-10,4.6-5,3-9.2,7.7-10.4,13.4-1.7,7.9,2.9,16,9,21.3,6.1,5.3,13.6,8.6,20.4,13,6.8,4.3,13.3,10.2,15.2,18.1,2.5,10.4-3.3,21.3-11.2,28.5-26.1,23.8-84.1,26.1-122.5,19-17.5-3.2-42-12.3-52.9-26.5-23.8-27,3.4-63.5,33.3-71.2,3.2-.8,6.4-1.3,9.6-1.4,12.3-.5,21,8.9,27.3,17.7,8.9,12.6,15,20,23.1,21.4,14.2,2.4,25.2-.4,26.3-8.4,1.2-8.8-3.2-17.3-7.9-23.5-6.4-8.5-12.1-10.3-12.1-10.3,2.3-5.1,2-11.5-1.1-16.3-1.7-2.4-3.6-4.6-6.5-5.7-2.1-.8-3.8-.6-4.5.7-.6,1.1-.4,2.4-.3,3.5.6,4.3-1.3,9-4.8,10.3-5,1.9-13.5.8-18-3.7-4.2-4.2-4.7-7.4-6-14.2-2.1-11.4-17.3,1.7-14.8,14.2-14-.1-25.5,1.8-33.6,3.8-7.7,1.8-21.8,5.3-37.4,15-10,6.2-17.3,12.9-22,17.8-4.4,4.5-8.5,9.6-12,15.3C-6.9,127.7.1,151.2,18.1,165.2c19.5,15,46.7,18.6,70.3,21.3,30.8,3.5,64.3,4.6,96.1.9,26.4-3.1,52.5-10.1,74.8-24.6,15.5-10.1,30.6-28.6,28.5-48.3"/>
    <path class="st1" d="M222,35c1.3.5,1.3,2.3,0,2.9-5.7,2.4-12.5,3.4-19.3,3.1-.5,5.7-1.5,11.3-3.1,16.1-.4,1.1-1.9,1.1-2.2,0-1.7-5.2-2.7-11.1-3.2-17.3-2.5-.6-4.8-1.3-7-2.3-.9-.4-.9-1.7,0-2.1,2.1-.9,4.3-1.7,6.7-2.2,0-9,1.1-18,3.4-25.5.4-1.1,2-1.1,2.3,0,2.3,7.2,3.4,15.7,3.4,24.2,6.6-.3,13.3.8,18.9,3.1"/>
    <path class="st3" d="M225.5,9.4c0,1.4-4.4,2.1-6.8,2.3,0,2.9-.7,5.9-1.8,8.6-.2.5-1,.5-1.1,0-1.2-2.9-1.8-5.9-1.8-9-1.5-.4-4.7-.6-4.4-1.9-.3-1,3-1.6,4.6-2,.3-2.5-.1-8.5,2.1-7.2,2.3,1.3,1.7,4.5,2.1,6.9,2.5.1,7.2,1.4,7.1,2.3"/>
  </g>
</svg>